<svg width="30" height="30" viewBox="0 0 30 30" fill="none" xmlns="http://www.w3.org/2000/svg">
<path fill-rule="evenodd" clip-rule="evenodd" d="M25.4999 6.4092e-06C26.5909 0.00439734 27.6797 0.0980297 28.7549 0.279933C29.4496 0.396908 29.9677 0.973222 29.9998 1.66483V19.3444C30.0063 19.7827 29.8138 20.201 29.4746 20.4858C29.1353 20.7706 28.6846 20.8922 28.2449 20.8177C23.8799 20.1254 19.4156 21.199 15.87 23.7937L15.69 23.8969H15.525C15.189 24.0344 14.811 24.0344 14.475 23.8969H14.31L14.13 23.7937C10.5598 21.2559 6.09764 20.2413 1.75514 20.9797C1.31538 21.0543 0.864654 20.9327 0.525415 20.6479C0.186176 20.3631 -0.00634329 19.9447 0.0001607 19.5064V1.82689C-0.0105731 1.10177 0.517541 0.476805 1.24515 0.353597C2.32034 0.171695 3.40909 0.0780621 4.50011 0.0736712C8.21505 0.0486707 11.8593 1.07135 15 3.02026C18.1327 1.04542 21.7775 -0.00299099 25.4999 6.4092e-06ZM4.42857 17.8111C7.41503 17.8092 10.357 18.5605 13 20V5.68346C10.4574 3.94372 7.47627 3.0178 4.42857 3.02129C3.95278 2.9929 3.4758 2.9929 3 3.02129V17.8111H4.42857ZM27 17.8187H25.5714C22.585 17.8168 19.643 18.5655 17 20V5.67415C19.5426 3.94045 22.5237 3.01774 25.5714 3.02122C26.0472 2.99293 26.5242 2.99293 27 3.02122V17.8187ZM25.4861 24C26.5757 24.0042 27.663 24.0945 28.7368 24.2698C29.1306 24.3291 29.4833 24.5347 29.7167 24.8412C29.95 25.1477 30.0449 25.5298 29.9801 25.9028C29.8216 26.6705 29.0379 27.1721 28.2274 27.0246C23.8907 26.3128 19.4344 27.2908 15.8688 29.7368C15.3488 30.0877 14.6512 30.0877 14.1312 29.7368C10.5656 27.2908 6.10934 26.3128 1.77256 27.0246C0.962087 27.1721 0.178379 26.6705 0.0198824 25.9028C-0.0448625 25.5298 0.0499552 25.1477 0.283333 24.8412C0.51671 24.5347 0.869384 24.3291 1.26323 24.2698C2.33701 24.0945 3.42433 24.0042 4.51392 24C8.23144 23.9971 11.8714 25.0076 15 26.911C18.1286 25.0076 21.7686 23.9971 25.4861 24Z" fill="#F15454"/>
</svg>
