<svg width="136" height="23" viewBox="0 0 136 23" fill="none" xmlns="http://www.w3.org/2000/svg">
<path fill-rule="evenodd" clip-rule="evenodd" d="M8.18 12.01C9.08 12.73 10.91 13.24 12.05 13.24C15.62 13.24 18.68 10.51 18.68 6.88C18.68 2.98 15.26 0.370003 10.97 0.370003C4.64 0.370003 0.200001 5.44 0.200001 11.62C0.200001 18.4 4.85 22.27 11.39 22.27C13.64 22.27 15.68 21.7 17.48 20.32V15.94C16.43 17.65 13.34 18.79 11.39 18.79C7.01 18.79 3.95 16.39 3.95 11.83C3.95 7.84 6.71 3.88 10.97 3.88C12.74 3.88 14.93 4.78 14.93 6.88C14.93 8.53 13.49 9.73 11.9 9.73C11.09 9.73 10.28 9.34 9.68 8.8L8.18 12.01ZM32.72 16.33C32.72 13.03 30.05 10.33 26.75 10.33C23.45 10.33 20.78 13.03 20.78 16.33C20.78 19.6 23.45 22.3 26.75 22.3C30.05 22.3 32.72 19.6 32.72 16.33ZM26.75 19.39C28.46 19.39 29.84 18.01 29.84 16.33V16.18C29.51 16.36 29.12 16.48 28.73 16.48C27.44 16.48 26.36 15.43 26.36 14.14C26.36 13.81 26.42 13.51 26.54 13.24C24.89 13.33 23.78 14.74 23.78 16.33C23.78 18.01 25.04 19.39 26.75 19.39ZM53.18 22.27C54.08 22.27 55.07 22.06 55.76 21.52V18.76C55.43 19.06 54.98 19.24 54.53 19.24C53.87 19.24 53.3 18.85 53.3 18.16V14.5C53.3 12.04 51.5 10.36 49.07 10.36C47.72 10.36 46.31 10.84 45.65 12.1C44.9 10.99 43.73 10.36 42.38 10.36C41.27 10.36 40.13 10.78 39.44 11.71V10.6H36.02V22H39.44V15.28C39.65 14.14 40.34 13.18 41.48 13.18C42.47 13.18 42.95 13.96 42.95 14.86V22H46.37V15.31C46.58 14.2 47.27 13.18 48.41 13.18C49.4 13.18 49.91 13.96 49.91 14.86V18.61C49.91 20.47 51.2 22.27 53.18 22.27ZM59.57 8.26C58.25 8.26 57.2 7.18 57.2 5.89C57.2 4.6 58.25 3.52 59.57 3.52C60.86 3.52 61.91 4.6 61.91 5.89C61.91 7.18 60.86 8.26 59.57 8.26ZM61.13 22.27C62 22.27 62.99 22.06 63.71 21.52V18.76C63.38 19.06 62.93 19.24 62.45 19.24C61.82 19.24 61.25 18.85 61.25 18.16V10.6H57.86V18.61C57.86 20.47 59.15 22.27 61.13 22.27ZM68.03 16.21C68.03 18.1 69.53 19.15 71.3 19.15C72.38 19.15 73.7 18.88 74.54 18.16V21.61C73.61 22.06 72.32 22.27 71.3 22.27C67.67 22.27 64.91 19.96 64.91 16.21C64.91 13.09 67.31 10.33 70.52 10.33C72.62 10.33 74.81 11.14 74.81 13.6C74.81 14.95 73.88 15.94 72.53 15.94C71.51 15.94 70.37 15.01 70.37 13.96C70.37 13.78 70.4 13.6 70.43 13.45C68.75 13.48 68.03 14.71 68.03 16.21ZM85.19 12.01C86.09 12.73 87.92 13.24 89.06 13.24C92.63 13.24 95.69 10.51 95.69 6.88C95.69 2.98 92.27 0.370003 87.98 0.370003C81.65 0.370003 77.21 5.44 77.21 11.62C77.21 18.4 81.86 22.27 88.4 22.27C90.65 22.27 92.69 21.7 94.49 20.32V15.94C93.44 17.65 90.35 18.79 88.4 18.79C84.02 18.79 80.96 16.39 80.96 11.83C80.96 7.84 83.72 3.88 87.98 3.88C89.75 3.88 91.94 4.78 91.94 6.88C91.94 8.53 90.5 9.73 88.91 9.73C88.1 9.73 87.29 9.34 86.69 8.8L85.19 12.01ZM104.54 21.52C103.85 22.06 102.86 22.27 101.96 22.27C99.98 22.27 98.69 20.47 98.69 18.61V0.700003H102.11V18.16C102.11 18.85 102.65 19.24 103.31 19.24C103.76 19.24 104.21 19.06 104.54 18.76V21.52ZM120.68 18.76C120.32 19.06 119.87 19.24 119.42 19.24C118.76 19.24 118.22 18.85 118.22 18.16V10.6H114.8V11.92C113.9 10.84 112.67 10.36 111.26 10.36C107.9 10.36 105.74 13.09 105.74 16.3C105.74 19.54 107.9 22.27 111.26 22.27C112.88 22.27 114.26 21.61 115.13 20.23C115.67 21.52 116.84 22.27 118.07 22.27C118.97 22.27 119.96 22.06 120.68 21.52V18.76ZM112.07 19.42C113.27 19.42 114.38 18.61 114.8 17.47V15.13C114.38 13.99 113.3 13.18 112.07 13.18C110.39 13.18 109.13 14.65 109.13 16.3C109.13 17.95 110.39 19.42 112.07 19.42ZM135.59 18.76C135.23 19.06 134.78 19.24 134.33 19.24C133.7 19.24 133.13 18.85 133.13 18.16V14.5C133.13 12.25 131.48 10.36 129.14 10.36C128.03 10.36 126.89 10.78 126.2 11.71V10.6H122.78V22H126.2V15.28C126.44 14.11 127.1 13.18 128.24 13.18C129.23 13.18 129.71 13.96 129.71 14.86V18.61C129.71 20.47 131 22.27 133.01 22.27C133.88 22.27 134.87 22.06 135.59 21.52V18.76Z" fill="#F15454"/>
</svg>
